{
    "asset" : {
        "generator" : "Khronos glTF Blender I/O v0.9.10",
        "version" : "2.0"
    },
    "scene" : 0,
    "scenes" : [
        {
            "name" : "Scene",
            "nodes" : [
                0,
                1,
                2,
                3
            ]
        }
    ],
    "nodes" : [
        {
            "mesh" : 0,
            "name" : "Sphere",
            "rotation" : [
                0,
                0,
                -0.7071067690849304,
                0.7071068286895752
            ],
            "scale" : [
                0.49574118852615356,
                0.49574118852615356,
                0.49574118852615356
            ],
            "translation" : [
                0,
                0.4761258661746979,
                -0.9635880589485168
            ]
        },
        {
            "mesh" : 1,
            "name" : "Sphere.002",
            "rotation" : [
                0,
                0,
                -0.7071067690849304,
                0.7071068286895752
            ],
            "scale" : [
                0.49574118852615356,
                0.49574118852615356,
                0.49574118852615356
            ],
            "translation" : [
                0.22705791890621185,
                0.47612589597702026,
                -0.9635880589485168
            ]
        },
        {
            "mesh" : 2,
            "name" : "Sphere.003",
            "rotation" : [
                0,
                0,
                -0.7071067690849304,
                0.7071068286895752
            ],
            "scale" : [
                0.49574118852615356,
                0.49574118852615356,
                0.49574118852615356
            ],
            "translation" : [
                -0.1839945763349533,
                0.4761258363723755,
                -0.9635880589485168
            ]
        },
        {
            "mesh" : 3,
            "name" : "Plane.003",
            "rotation" : [
                0,
                0,
                -0.7071067690849304,
                0.7071068286895752
            ],
            "scale" : [
                0.9999302625656128,
                0.9999302625656128,
                0.9999302625656128
            ],
            "translation" : [
                0.3357158899307251,
                0.43919825553894043,
                -0.9819382429122925
            ]
        }
    ],
    "materials" : [
        {
            "doubleSided" : true,
            "name" : "Rainbow",
            "pbrMetallicRoughness" : {
                "baseColorTexture" : {
                    "index" : 0,
                    "texCoord" : 0
                },
                "metallicFactor" : 0,
                "roughnessFactor" : 0.5
            }
        },
        {
            "doubleSided" : true,
            "name" : "Rainbow.002",
            "pbrMetallicRoughness" : {
                "baseColorTexture" : {
                    "index" : 1,
                    "texCoord" : 0
                },
                "metallicFactor" : 0,
                "roughnessFactor" : 0.5
            }
        },
        {
            "alphaCutoff" : 0.5,
            "alphaMode" : "MASK",
            "doubleSided" : true,
            "name" : "Athome.001",
            "pbrMetallicRoughness" : {
                "baseColorTexture" : {
                    "index" : 2,
                    "texCoord" : 0
                },
                "metallicFactor" : 0,
                "roughnessFactor" : 0.5
            }
        }
    ],
    "meshes" : [
        {
            "name" : "Sphere",
            "primitives" : [
                {
                    "attributes" : {
                        "POSITION" : 0,
                        "NORMAL" : 1,
                        "TEXCOORD_0" : 2
                    },
                    "indices" : 3,
                    "material" : 0
                }
            ]
        },
        {
            "name" : "Sphere.002",
            "primitives" : [
                {
                    "attributes" : {
                        "POSITION" : 4,
                        "NORMAL" : 5,
                        "TEXCOORD_0" : 6
                    },
                    "indices" : 3,
                    "material" : 0
                }
            ]
        },
        {
            "name" : "Sphere.003",
            "primitives" : [
                {
                    "attributes" : {
                        "POSITION" : 7,
                        "NORMAL" : 8,
                        "TEXCOORD_0" : 9
                    },
                    "indices" : 3,
                    "material" : 1
                }
            ]
        },
        {
            "name" : "Plane.003",
            "primitives" : [
                {
                    "attributes" : {
                        "POSITION" : 10,
                        "NORMAL" : 11,
                        "TEXCOORD_0" : 12
                    },
                    "indices" : 13,
                    "material" : 2
                }
            ]
        }
    ],
    "textures" : [
        {
            "source" : 0
        },
        {
            "source" : 0
        },
        {
            "source" : 1
        }
    ],
    "images" : [
        {
            "bufferView" : 4,
            "mimeType" : "image/png",
            "name" : "RainbowWheelArtboard 1"
        },
        {
            "bufferView" : 15,
            "mimeType" : "image/png",
            "name" : "RainbowAtRoomArtboard 1"
        }
    ],
    "accessors" : [
        {
            "bufferView" : 0,
            "componentType" : 5126,
            "count" : 384,
            "max" : [
                0.9807851910591125,
                0.7108343243598938,
                0.9807853698730469
            ],
            "min" : [
                -0.9807848930358887,
                0.7108339667320251,
                -0.9807852506637573
            ],
            "type" : "VEC3"
        },
        {
            "bufferView" : 1,
            "componentType" : 5126,
            "count" : 384,
            "type" : "VEC3"
        },
        {
            "bufferView" : 2,
            "componentType" : 5126,
            "count" : 384,
            "type" : "VEC2"
        },
        {
            "bufferView" : 3,
            "componentType" : 5123,
            "count" : 576,
            "type" : "SCALAR"
        },
        {
            "bufferView" : 5,
            "componentType" : 5126,
            "count" : 384,
            "max" : [
                0.9807851910591125,
                0.7108343243598938,
                0.9807853698730469
            ],
            "min" : [
                -0.9807848930358887,
                0.7108339667320251,
                -0.9807852506637573
            ],
            "type" : "VEC3"
        },
        {
            "bufferView" : 6,
            "componentType" : 5126,
            "count" : 384,
            "type" : "VEC3"
        },
        {
            "bufferView" : 7,
            "componentType" : 5126,
            "count" : 384,
            "type" : "VEC2"
        },
        {
            "bufferView" : 8,
            "componentType" : 5126,
            "count" : 384,
            "max" : [
                0.9807851910591125,
                0.7108343243598938,
                0.9807853698730469
            ],
            "min" : [
                -0.9807848930358887,
                0.7108339667320251,
                -0.9807852506637573
            ],
            "type" : "VEC3"
        },
        {
            "bufferView" : 9,
            "componentType" : 5126,
            "count" : 384,
            "type" : "VEC3"
        },
        {
            "bufferView" : 10,
            "componentType" : 5126,
            "count" : 384,
            "type" : "VEC2"
        },
        {
            "bufferView" : 11,
            "componentType" : 5126,
            "count" : 4,
            "max" : [
                0.25,
                9.51327267016775e-16,
                0.25
            ],
            "min" : [
                -0.25,
                -9.51327267016775e-16,
                -0.25
            ],
            "type" : "VEC3"
        },
        {
            "bufferView" : 12,
            "componentType" : 5126,
            "count" : 4,
            "type" : "VEC3"
        },
        {
            "bufferView" : 13,
            "componentType" : 5126,
            "count" : 4,
            "type" : "VEC2"
        },
        {
            "bufferView" : 14,
            "componentType" : 5123,
            "count" : 6,
            "type" : "SCALAR"
        }
    ],
    "bufferViews" : [
        {
            "buffer" : 0,
            "byteLength" : 4608,
            "byteOffset" : 0
        },
        {
            "buffer" : 0,
            "byteLength" : 4608,
            "byteOffset" : 4608
        },
        {
            "buffer" : 0,
            "byteLength" : 3072,
            "byteOffset" : 9216
        },
        {
            "buffer" : 0,
            "byteLength" : 1152,
            "byteOffset" : 12288
        },
        {
            "buffer" : 0,
            "byteLength" : 212779,
            "byteOffset" : 13440
        },
        {
            "buffer" : 0,
            "byteLength" : 4608,
            "byteOffset" : 226220
        },
        {
            "buffer" : 0,
            "byteLength" : 4608,
            "byteOffset" : 230828
        },
        {
            "buffer" : 0,
            "byteLength" : 3072,
            "byteOffset" : 235436
        },
        {
            "buffer" : 0,
            "byteLength" : 4608,
            "byteOffset" : 238508
        },
        {
            "buffer" : 0,
            "byteLength" : 4608,
            "byteOffset" : 243116
        },
        {
            "buffer" : 0,
            "byteLength" : 3072,
            "byteOffset" : 247724
        },
        {
            "buffer" : 0,
            "byteLength" : 48,
            "byteOffset" : 250796
        },
        {
            "buffer" : 0,
            "byteLength" : 48,
            "byteOffset" : 250844
        },
        {
            "buffer" : 0,
            "byteLength" : 32,
            "byteOffset" : 250892
        },
        {
            "buffer" : 0,
            "byteLength" : 12,
            "byteOffset" : 250924
        },
        {
            "buffer" : 0,
            "byteLength" : 21890,
            "byteOffset" : 250936
        }
    ],
    "buffers" : [
        {
            "byteLength" : 272828,
            "uri" : "data:application/octet-stream;base64,"
        }
    ]
}
