{
    "asset" : {
        "generator" : "Khronos glTF Blender I/O v1.2.75",
        "version" : "2.0"
    },
    "scene" : 0,
    "scenes" : [
        {
            "name" : "Scene",
            "nodes" : [
                0,
                1,
                2
            ]
        }
    ],
    "nodes" : [
        {
            "mesh" : 0,
            "name" : "Cube"
        },
        {
            "name" : "Light",
            "rotation" : [
                0.16907575726509094,
                0.7558803558349609,
                -0.27217137813568115,
                0.570947527885437
            ],
            "translation" : [
                4.076245307922363,
                5.903861999511719,
                -1.0054539442062378
            ]
        },
        {
            "name" : "Camera",
            "rotation" : [
                0.483536034822464,
                0.33687159419059753,
                -0.20870360732078552,
                0.7804827094078064
            ],
            "translation" : [
                7.358891487121582,
                4.958309173583984,
                6.925790786743164
            ]
        }
    ],
    "materials" : [
        {
            "doubleSided" : true,
            "emissiveFactor" : [
                0,
                0,
                0
            ],
            "name" : "Chair",
            "pbrMetallicRoughness" : {
                "baseColorFactor" : [
                    0.03379175066947937,
                    0.03812335431575775,
                    0.04044352099299431,
                    1
                ],
                "metallicFactor" : 0,
                "roughnessFactor" : 0.4000000059604645
            }
        },
        {
            "doubleSided" : true,
            "emissiveFactor" : [
                0,
                0,
                0
            ],
            "name" : "Body",
            "pbrMetallicRoughness" : {
                "baseColorFactor" : [
                    0.2958034574985504,
                    0.3570733964443207,
                    0.7314431667327881,
                    1
                ],
                "metallicFactor" : 0,
                "roughnessFactor" : 0
            }
        },
        {
            "doubleSided" : true,
            "emissiveFactor" : [
                0,
                0,
                0
            ],
            "name" : "Peb",
            "pbrMetallicRoughness" : {
                "baseColorFactor" : [
                    0,
                    0,
                    0,
                    1
                ],
                "metallicFactor" : 0,
                "roughnessFactor" : 0.8556700944900513
            }
        }
    ],
    "meshes" : [
        {
            "name" : "Cube",
            "primitives" : [
                {
                    "attributes" : {
                        "POSITION" : 0,
                        "NORMAL" : 1,
                        "TEXCOORD_0" : 2,
                        "TEXCOORD_1" : 3
                    },
                    "indices" : 4,
                    "material" : 0
                },
                {
                    "attributes" : {
                        "POSITION" : 5,
                        "NORMAL" : 6,
                        "TEXCOORD_0" : 7,
                        "TEXCOORD_1" : 8
                    },
                    "indices" : 9,
                    "material" : 1
                },
                {
                    "attributes" : {
                        "POSITION" : 10,
                        "NORMAL" : 11,
                        "TEXCOORD_0" : 12,
                        "TEXCOORD_1" : 13
                    },
                    "indices" : 14,
                    "material" : 2
                }
            ]
        }
    ],
    "accessors" : [
        {
            "bufferView" : 0,
            "componentType" : 5126,
            "count" : 361,
            "max" : [
                1.5646309852600098,
                3.3452036380767822,
                1
            ],
            "min" : [
                -3.133636236190796,
                0.013307571411132812,
                -1
            ],
            "type" : "VEC3"
        },
        {
            "bufferView" : 1,
            "componentType" : 5126,
            "count" : 361,
            "type" : "VEC3"
        },
        {
            "bufferView" : 2,
            "componentType" : 5126,
            "count" : 361,
            "type" : "VEC2"
        },
        {
            "bufferView" : 3,
            "componentType" : 5126,
            "count" : 361,
            "type" : "VEC2"
        },
        {
            "bufferView" : 4,
            "componentType" : 5123,
            "count" : 624,
            "type" : "SCALAR"
        },
        {
            "bufferView" : 5,
            "componentType" : 5126,
            "count" : 290,
            "max" : [
                1.6173099279403687,
                4.281528472900391,
                0.9822506308555603
            ],
            "min" : [
                -1.9227194786071777,
                0.3083367347717285,
                -1.164452075958252
            ],
            "type" : "VEC3"
        },
        {
            "bufferView" : 6,
            "componentType" : 5126,
            "count" : 290,
            "type" : "VEC3"
        },
        {
            "bufferView" : 7,
            "componentType" : 5126,
            "count" : 290,
            "type" : "VEC2"
        },
        {
            "bufferView" : 8,
            "componentType" : 5126,
            "count" : 290,
            "type" : "VEC2"
        },
        {
            "bufferView" : 9,
            "componentType" : 5123,
            "count" : 444,
            "type" : "SCALAR"
        },
        {
            "bufferView" : 10,
            "componentType" : 5126,
            "count" : 24,
            "max" : [
                0.15787839889526367,
                2.80532169342041,
                0.2603861391544342
            ],
            "min" : [
                -0.15787899494171143,
                2.0835952758789062,
                -0.26038604974746704
            ],
            "type" : "VEC3"
        },
        {
            "bufferView" : 11,
            "componentType" : 5126,
            "count" : 24,
            "type" : "VEC3"
        },
        {
            "bufferView" : 12,
            "componentType" : 5126,
            "count" : 24,
            "type" : "VEC2"
        },
        {
            "bufferView" : 13,
            "componentType" : 5126,
            "count" : 24,
            "type" : "VEC2"
        },
        {
            "bufferView" : 14,
            "componentType" : 5123,
            "count" : 36,
            "type" : "SCALAR"
        }
    ],
    "bufferViews" : [
        {
            "buffer" : 0,
            "byteLength" : 4332,
            "byteOffset" : 0
        },
        {
            "buffer" : 0,
            "byteLength" : 4332,
            "byteOffset" : 4332
        },
        {
            "buffer" : 0,
            "byteLength" : 2888,
            "byteOffset" : 8664
        },
        {
            "buffer" : 0,
            "byteLength" : 2888,
            "byteOffset" : 11552
        },
        {
            "buffer" : 0,
            "byteLength" : 1248,
            "byteOffset" : 14440
        },
        {
            "buffer" : 0,
            "byteLength" : 3480,
            "byteOffset" : 15688
        },
        {
            "buffer" : 0,
            "byteLength" : 3480,
            "byteOffset" : 19168
        },
        {
            "buffer" : 0,
            "byteLength" : 2320,
            "byteOffset" : 22648
        },
        {
            "buffer" : 0,
            "byteLength" : 2320,
            "byteOffset" : 24968
        },
        {
            "buffer" : 0,
            "byteLength" : 888,
            "byteOffset" : 27288
        },
        {
            "buffer" : 0,
            "byteLength" : 288,
            "byteOffset" : 28176
        },
        {
            "buffer" : 0,
            "byteLength" : 288,
            "byteOffset" : 28464
        },
        {
            "buffer" : 0,
            "byteLength" : 192,
            "byteOffset" : 28752
        },
        {
            "buffer" : 0,
            "byteLength" : 192,
            "byteOffset" : 28944
        },
        {
            "buffer" : 0,
            "byteLength" : 72,
            "byteOffset" : 29136
        }
    ],
    "buffers" : [
        {
            "byteLength" : 29208,
            "uri" : "data:application/octet-stream;base64,"
        }
    ]
}
